<svg width="14" height="16" viewBox="0 0 14 16" fill="none" xmlns="http://www.w3.org/2000/svg">
<path d="M1.5 14.75V13.25C1.5 12.4544 1.81607 11.6913 2.37868 11.1287C2.94129 10.5661 3.70435 10.25 4.5 10.25H9.5C10.2956 10.25 11.0587 10.5661 11.6213 11.1287C12.1839 11.6913 12.5 12.4544 12.5 13.25V14.75M4 4.25C4 5.04565 4.31607 5.80871 4.87868 6.37132C5.44129 6.93393 6.20435 7.25 7 7.25C7.79565 7.25 8.55871 6.93393 9.12132 6.37132C9.68393 5.80871 10 5.04565 10 4.25C10 3.45435 9.68393 2.69129 9.12132 2.12868C8.55871 1.56607 7.79565 1.25 7 1.25C6.20435 1.25 5.44129 1.56607 4.87868 2.12868C4.31607 2.69129 4 3.45435 4 4.25Z" stroke="#B5B5B5" stroke-width="1.5" stroke-linecap="round" stroke-linejoin="round"/>
</svg>
