<svg width="20" height="20" viewBox="0 0 20 20" fill="none" xmlns="http://www.w3.org/2000/svg">
<path d="M19.56 8.7401L18.2 7.16006C17.94 6.86006 17.73 6.30006 17.73 5.90006V4.20006C17.73 3.14006 16.86 2.27006 15.8 2.27006H14.1C13.71 2.27006 13.14 2.06006 12.84 1.80006L11.26 0.440059C10.57 -0.149941 9.43999 -0.149941 8.73999 0.440059L7.16999 1.81006C6.86999 2.06006 6.29999 2.27006 5.90999 2.27006H4.17999C3.11999 2.27006 2.24999 3.14006 2.24999 4.20006V5.91006C2.24999 6.30006 2.03999 6.86006 1.78999 7.16006L0.43999 8.7501C-0.14001 9.4401 -0.14001 10.5601 0.43999 11.2501L1.78999 12.8401C2.03999 13.1401 2.24999 13.7001 2.24999 14.0901V15.8001C2.24999 16.8601 3.11999 17.7301 4.17999 17.7301H5.90999C6.29999 17.7301 6.86999 17.9401 7.16999 18.2001L8.74999 19.5601C9.43999 20.1501 10.57 20.1501 11.27 19.5601L12.85 18.2001C13.15 17.9401 13.71 17.7301 14.11 17.7301H15.81C16.87 17.7301 17.74 16.8601 17.74 15.8001V14.1001C17.74 13.7101 17.95 13.1401 18.21 12.8401L19.57 11.2601C20.15 10.5701 20.15 9.4301 19.56 8.7401ZM14.16 8.1101L9.32999 12.9401C9.18999 13.0801 8.99999 13.1601 8.79999 13.1601C8.59999 13.1601 8.40999 13.0801 8.26999 12.9401L5.84999 10.5201C5.55999 10.2301 5.55999 9.7501 5.84999 9.4601C6.13999 9.1701 6.61999 9.1701 6.90999 9.4601L8.79999 11.3501L13.1 7.05006C13.39 6.76006 13.87 6.76006 14.16 7.05006C14.45 7.34006 14.45 7.82006 14.16 8.1101Z" fill="#07BC53"/>
</svg>
