<svg width="22" height="21" viewBox="0 0 22 21" fill="none" xmlns="http://www.w3.org/2000/svg">
<path d="M7.24301 6.34L0.86301 7.265L0.75001 7.288C0.578949 7.33341 0.423005 7.42341 0.298102 7.5488C0.1732 7.67419 0.0838135 7.83049 0.0390722 8.00173C-0.00566913 8.17296 -0.00416268 8.35301 0.0434376 8.52347C0.091038 8.69394 0.183027 8.84871 0.31001 8.972L4.93201 13.471L3.84201 19.826L3.82901 19.936C3.81854 20.1129 3.85528 20.2894 3.93546 20.4475C4.01564 20.6056 4.13639 20.7395 4.28535 20.8355C4.4343 20.9316 4.6061 20.9863 4.78316 20.9941C4.96022 21.0019 5.13617 20.9625 5.29301 20.88L10.999 17.88L16.692 20.88L16.792 20.926C16.9571 20.991 17.1365 21.0109 17.3118 20.9838C17.4871 20.9566 17.652 20.8832 17.7896 20.7713C17.9272 20.6593 18.0326 20.5127 18.0948 20.3466C18.1571 20.1805 18.1741 20.0008 18.144 19.826L17.053 13.471L21.677 8.971L21.755 8.886C21.8664 8.74877 21.9395 8.58445 21.9667 8.40979C21.994 8.23514 21.9744 8.05638 21.9101 7.89173C21.8458 7.72708 21.7389 7.58243 21.6005 7.47251C21.4621 7.36259 21.297 7.29134 21.122 7.266L14.742 6.34L11.89 0.559999C11.8075 0.392533 11.6797 0.251514 11.5212 0.152903C11.3627 0.0542928 11.1797 0.00202942 10.993 0.00202942C10.8063 0.00202942 10.6233 0.0542928 10.4648 0.152903C10.3063 0.251514 10.1785 0.392533 10.096 0.559999L7.24301 6.34Z" fill="#07BC53"/>
</svg>
